<svg id="Layer_1" data-name="Layer 1" xmlns="http://www.w3.org/2000/svg" viewBox="0 0 541.84 130.96"><defs><style>.cls-1{fill:#292438;}</style></defs><title>Logo</title><path class="cls-1" d="M137.2,26.9c-21.52,0-35,14.65-35,38.31s13.52,38.31,35,38.31,35.16-14.64,35.16-38.31S158.84,26.9,137.2,26.9Zm0,66.15c-14,0-22.42-10.15-22.42-27.84s8.45-27.83,22.42-27.83,22.54,10.14,22.54,27.83S151.29,93.05,137.2,93.05Z"/><path class="cls-1" d="M234.91,29.15,216,58.9H200V29.15H188v74.37h30.31c16,0,26-8.33,26-22.31,0-10.7-5.86-18.14-15.77-21l20.17-31.1Zm-3,52c0,8.23-4.73,12.17-14.53,12.17H200V68.93h17.36C227.13,68.93,231.86,72.87,231.86,81.1Z"/><path class="cls-1" d="M311.43,29.15l-21.3,32.23H267.82V29.15h-5.64v74.37h27.61c14.76,0,24.34-8,24.34-21.07,0-10.93-6.76-18.36-17.69-20.51l21.63-32.79Zm-3.16,53.3c0,10.26-6.54,15.89-18.59,15.89H267.82V66.68h21.86C301.73,66.68,308.27,72.2,308.27,82.45Z"/><polygon class="cls-1" points="332.05 103.53 382.87 103.53 382.87 98.34 337.69 98.34 337.69 69.61 373.41 69.61 373.41 64.31 337.69 64.31 337.69 34.34 384.68 34.34 384.68 29.15 332.05 29.15 332.05 103.53"/><polygon class="cls-1" points="493.76 98.34 493.76 29.15 488.13 29.15 488.13 98.34 460.97 98.34 460.97 103.53 520.92 103.53 520.92 98.34 493.76 98.34"/><path class="cls-1" d="M426.54,33.28c11.75,0,20.39,5.88,23.71,16.62l5.54-2.1c-4.21-12.41-15-19.61-29.25-19.61-20.16,0-33.23,14.51-33.23,37.67s13.18,37.66,33.12,37.66c14.74,0,24.16-6.2,28.36-18.06l-5.42-2.54c-3.44,10.3-10.64,15.51-22.6,15.51-16.51,0-27.59-12.41-27.59-32.57S409.93,33.28,426.54,33.28Z"/><path class="cls-1" d="M60.61,28.13V15.6H50.25V28.12c-18.16,2.16-29.33,16-29.33,37.36s11.17,35.19,29.33,37.36v12.51H60.61V102.83c18.19-2.2,29.33-16.06,29.33-37.35S78.8,30.33,60.61,28.13ZM33.33,65.48c0-15.11,6.27-24.62,16.92-26.85v53.7C39.6,90.09,33.33,80.59,33.33,65.48ZM60.61,92.31V38.65C71.29,40.91,77.53,50.4,77.53,65.48S71.29,90.05,60.61,92.31Z"/></svg>